<svg xmlns="http://www.w3.org/2000/svg" viewBox="0 0 100 100">
  <defs>
    <linearGradient id="blueGradient" x1="0%" y1="0%" x2="100%" y2="100%">
      <stop offset="0%" style="stop-color:#4F46E5;stop-opacity:1" />
      <stop offset="100%" style="stop-color:#1E40AF;stop-opacity:1" />
    </linearGradient>
  </defs>
  
  <!-- Background circle -->
  <circle cx="50" cy="50" r="45" fill="url(#blueGradient)"/>
  
  <!-- Letter G -->
  <path d="M25 35 Q25 25 35 25 L65 25 Q75 25 75 35 L75 45 L60 45 L60 40 L65 40 L65 35 Q65 30 60 30 L40 30 Q35 30 35 35 L35 65 Q35 70 40 70 L60 70 Q65 70 65 65 L65 55 L50 55 L50 50 L75 50 L75 65 Q75 75 65 75 L35 75 Q25 75 25 65 Z" fill="white"/>
  
  <!-- Decorative squares -->
  <rect x="15" y="15" width="8" height="8" fill="#60A5FA" opacity="0.8"/>
  <rect x="77" y="15" width="8" height="8" fill="#60A5FA" opacity="0.8"/>
  <rect x="15" y="77" width="8" height="8" fill="#60A5FA" opacity="0.8"/>
  <rect x="77" y="77" width="8" height="8" fill="#60A5FA" opacity="0.8"/>
</svg>